<svg xmlns="http://www.w3.org/2000/svg" xmlns:xlink="http://www.w3.org/1999/xlink" version="1.1" x="0px" y="0px" viewBox="0 0 1224 1530" enable-background="new 0 0 1224 1224" xml:space="preserve"><path display="none" fill="none" stroke="#000000" stroke-width="75" stroke-linecap="round" stroke-miterlimit="10" d="  M284.423,880.161c-12.915,27.837-19.905,57.596-19.905,88.518"/><path display="none" fill="none" stroke="#000000" stroke-width="75" stroke-linecap="round" stroke-miterlimit="10" d="  M1055.259,968.679c0-31.489-7.249-61.771-20.622-90.047"/><path d="M377.248,380.932l50.455-50.455c11.715-11.716,11.715-30.711,0-42.427c-11.716-11.715-30.711-11.715-42.427,0  l-50.455,50.455l-50.455-50.455c-11.716-11.715-30.711-11.715-42.427,0c-11.715,11.716-11.715,30.711,0,42.427l50.455,50.455  l-50.455,50.455c-11.715,11.716-11.715,30.711,0,42.427c5.858,5.857,13.536,8.787,21.213,8.787s15.355-2.929,21.213-8.787  l50.455-50.455l50.455,50.455c5.858,5.857,13.536,8.787,21.213,8.787s15.355-2.929,21.213-8.787  c11.715-11.716,11.715-30.711,0-42.427L377.248,380.932z"/><path d="M955.76,431.387l-50.455-50.457l50.454-50.454c11.716-11.716,11.716-30.711,0-42.427c-11.715-11.715-30.711-11.715-42.426,0  l-50.454,50.454l-50.452-50.454c-11.715-11.716-30.71-11.716-42.427,0c-11.716,11.715-11.716,30.71-0.001,42.426l50.453,50.454  L770,431.382c-11.716,11.716-11.716,30.711,0,42.427c5.858,5.858,13.534,8.787,21.213,8.787c7.677,0,15.356-2.93,21.213-8.787  l50.452-50.451l50.454,50.456c5.858,5.859,13.535,8.787,21.214,8.787c7.677,0,15.355-2.93,21.213-8.787  C967.475,462.098,967.475,443.103,955.76,431.387z"/><path d="M1077.14,934.852H136.778c-20.435,0-37-16.565-37-37s16.565-37,37-37h940.361c20.435,0,37,16.565,37,37  S1097.574,934.852,1077.14,934.852z"/><text x="0" y="1239" fill="#000000" font-size="5px" font-weight="bold" font-family="'Helvetica Neue', Helvetica, Arial-Unicode, Arial, Sans-serif">Created by Nesdon Booth</text><text x="0" y="1244" fill="#000000" font-size="5px" font-weight="bold" font-family="'Helvetica Neue', Helvetica, Arial-Unicode, Arial, Sans-serif">from the Noun Project</text></svg>