<svg xmlns:dc="http://purl.org/dc/elements/1.1/" xmlns:cc="http://creativecommons.org/ns#" xmlns:rdf="http://www.w3.org/1999/02/22-rdf-syntax-ns#" xmlns:svg="http://www.w3.org/2000/svg" xmlns="http://www.w3.org/2000/svg" xmlns:sodipodi="http://sodipodi.sourceforge.net/DTD/sodipodi-0.dtd" xmlns:inkscape="http://www.inkscape.org/namespaces/inkscape" version="1.1" x="0px" y="0px" viewBox="0 0 100 125"><g transform="translate(0,-952.36218)"><path style="text-indent:0;text-transform:none;direction:ltr;block-progression:tb;baseline-shift:baseline;color:#000000;enable-background:accumulate;" d="m 50,959.36217 c -23.73628,0 -43,19.26375 -43,43.00003 0,23.7362 19.26372,43 43,43 23.73628,0 43,-19.2638 43,-43 0,-23.73628 -19.26372,-43.00003 -43,-43.00003 z m 0,2 c 22.65538,0 41,18.34465 41,41.00003 0,22.6553 -18.34462,41 -41,41 -22.65538,0 -41,-18.3447 -41,-41 0,-22.65538 18.34462,-41.00003 41,-41.00003 z m -10.625,20.96875 c -0.94425,0.0206 -1.86906,0.28298 -2.65625,0.75 -1.57438,0.93404 -2.67201,2.68272 -2.71875,4.78127 l 0,28.90621 c 0.0468,2.0985 1.14542,3.8416 2.71875,4.7813 1.57333,0.9397 3.65024,1.0653 5.5,0.062 l 25,-14.5 c 1.64948,-0.9575 2.78125,-2.7525 2.78125,-4.812 0,-2.0595 -1.13172,-3.82331 -2.78125,-4.78131 -8.2274,-4.9893 -16.80371,-9.5802 -25,-14.49997 -0.91978,-0.51039 -1.95778,-0.69866 -2.84375,-0.6875 z m 0.125,1.96875 c 0.54756,0.01 1.10276,0.1859 1.75,0.5 l 24.96875,14.43752 c 1.07187,0.6224 1.78125,1.72861 1.78125,3.06251 0,1.3339 -0.70933,2.4711 -1.78125,3.0937 -8.31013,4.6674 -16.01503,9.3333 -25,14.4688 -1.24714,0.6637 -2.48053,0.5589 -3.46875,-0.031 -0.9884,-0.5904 -1.70758,-1.6707 -1.75,-3.0938 l 0,-28.84371 c 0.0321,-1.4398 0.75486,-2.50338 1.75,-3.09377 0.66245,-0.35278 1.20244,-0.50965 1.75,-0.5 z" fill="#000000" fill-opacity="1" stroke="none" marker="none" visibility="visible" display="inline" overflow="visible"/></g></svg>