<?xml version="1.0" encoding="utf-8"?><svg version="1.1" xmlns="http://www.w3.org/2000/svg" xmlns:xlink="http://www.w3.org/1999/xlink" x="0px" y="0px" viewBox="0 0 396 396" style="enable-background:new 0 0 396 396;" xml:space="preserve"><path d="M286.5,152.7H265V95.9c0-33.9-27.5-61.4-61.5-61.5h-10.8c-29,0-54.1,20.3-60.1,48.7l0,0c-0.2,0.9-0.4,1.8-0.5,2.8l0,0
	c-0.5,3.3-0.8,6.7-0.8,10v56.7h-21.9c-11,0-19.9,8.9-19.9,19.9v9.5c0.1,56.5,44.5,103,101,105.6v17h-49c-9.4,0-17.1,7.7-17.1,17.1
	v22.7c0,9.4,7.7,17.1,17.1,17.1h111.2c9.5,0,17.1-7.6,17.1-17.1l0,0v-22.7c0-9.4-7.7-17.1-17.1-17.1h-47.6v-17
	c56.5-2.5,101.1-49,101.1-105.6v-9.5C306.4,161.6,297.5,152.7,286.5,152.7z M146,167.3h59.1c4.1,0.1,7.5-3,7.6-7.1s-3-7.5-7.1-7.6
	c-0.2,0-0.4,0-0.5,0H146v-22.9h59.1c4,0,7.3-3.3,7.3-7.3s-3.3-7.3-7.3-7.3l0,0H146V95.9c0-0.9,0-1.8,0.1-2.7h59c4,0,7.3-3.3,7.3-7.3
	s-3.3-7.3-7.3-7.3h-55.7c7.1-17.7,24.3-29.4,43.5-29.4h10.8c25.8,0,46.8,21,46.8,46.8v95.4c0,25.8-21,46.8-46.8,46.8h-10.8
	c-25.9,0-46.8-20.9-46.9-46.8V167.3z M252.8,319.3c1.3,0,2.4,1.1,2.4,2.4v22.7c0,1.3-1.1,2.4-2.4,2.5H141.6c-1.3,0-2.4-1.1-2.4-2.5
	v-22.8c0-1.3,1.1-2.4,2.4-2.4L252.8,319.3z M291.7,182c-0.1,50.3-40.8,91-91.1,91.1h-5.3c-50.3-0.1-91-40.8-91.1-91.1v-9.5
	c0-2.9,2.3-5.2,5.2-5.2h21.9v24c0,33.9,27.5,61.4,61.5,61.5h10.8c33.9,0,61.4-27.5,61.5-61.5v-24h21.5c2.9,0,5.2,2.3,5.2,5.2l0,0
	v9.5H291.7z"></path></svg>