<svg xmlns="http://www.w3.org/2000/svg" xmlns:xlink="http://www.w3.org/1999/xlink" version="1.1" x="0px" y="0px" viewBox="0 0 96 120" enable-background="new 0 0 96 96" xml:space="preserve"><g><polygon points="95.922,36.608 90.875,33.54 87.855,38.685 92.906,41.753  "/><polygon points="85.82,30.47 80.773,27.401 77.758,32.54 82.801,35.608  "/><polygon points="82.801,35.608 79.789,40.753 84.836,43.833 87.855,38.685  "/><polygon points="86.875,52.044 89.891,46.897 84.836,43.833 81.82,48.976  "/><polygon points="75.695,59.423 80.742,62.493 83.758,57.354 78.707,54.273  "/><polygon points="0.078,36.608 3.086,41.753 8.145,38.685 5.125,33.54  "/><polygon points="15.223,27.401 10.18,30.47 13.195,35.608 18.242,32.54  "/><polygon points="8.145,38.685 11.156,43.833 16.203,40.753 13.195,35.608  "/><polygon points="18.242,32.54 21.254,37.688 26.309,34.608 23.297,29.47  "/><polygon points="9.125,52.044 14.176,48.976 11.156,43.833 6.105,46.897  "/><polygon points="19.227,45.905 24.273,42.829 21.254,37.688 16.203,40.753  "/><polygon points="14.176,48.979 17.187,54.118 22.242,51.058 19.227,45.905  "/><polygon points="29.332,39.757 24.273,42.837 27.297,47.978 32.344,44.909  "/><polygon points="12.238,57.354 15.254,62.493 20.305,59.423 17.285,54.273  "/><polygon points="22.336,51.208 25.355,56.354 30.41,53.273 27.391,48.138  "/><polygon points="72.703,29.47 69.688,34.608 74.742,37.688 77.758,32.54  "/><polygon points="71.727,42.829 76.773,45.905 79.789,40.753 74.742,37.688  "/><polygon points="81.82,48.979 76.766,45.905 73.758,51.058 78.805,54.118  "/><polygon points="71.719,42.837 66.668,39.757 63.648,44.909 68.703,47.978  "/><polygon points="65.594,53.273 70.645,56.354 73.656,51.208 68.609,48.138  "/><path d="M67.734,26.444l4.969,3.025l3.023-5.141l-4.984-3.027l0.039-0.053c0.836-1.42,0.383-3.256-1.016-4.107   c-1.402-0.854-3.203-0.385-4.031,1.039L48,48.413L30.266,18.181c-0.832-1.42-2.633-1.893-4.035-1.039   c-1.391,0.852-1.848,2.688-1.016,4.111l0.035,0.053l-4.977,3.023l3.023,5.141l4.965-3.025l3.023,5.148l-4.977,3.016l3.012,5.148   l4.977-3.023l3.117,5.303l-4.98,3.025l3.016,5.143l4.977-3.023l4.148,7.07l-12.027,20.5c-0.844,1.418-0.375,3.258,1.02,4.105   c1.395,0.852,3.191,0.387,4.035-1.039L48,60.087L58.398,77.82c0.836,1.423,2.633,1.892,4.031,1.039   c1.396-0.849,1.861-2.69,1.021-4.103L51.421,54.25l4.142-7.066l4.979,3.023l3.013-5.143l-4.969-3.024l3.109-5.303l4.977,3.023   l3.016-5.148l-4.977-3.016L67.734,26.444z"/></g></svg>